<svg id="ico-edita" xmlns="http://www.w3.org/2000/svg" width="24" height="24" viewBox="0 0 24 24">
  <path id="Icon_awesome-pen-square" data-name="Icon awesome-pen-square" d="M21.429,26.25H2.571A2.572,2.572,0,0,1,0,23.679V4.821A2.572,2.572,0,0,1,2.571,2.25H21.429A2.572,2.572,0,0,1,24,4.821V23.679A2.572,2.572,0,0,1,21.429,26.25ZM12.755,10.066l-7.27,7.27-.338,3.059a.649.649,0,0,0,.713.712L8.92,20.77l7.27-7.27a.327.327,0,0,0,0-.455l-2.973-2.973a.328.328,0,0,0-.461-.005Zm5.727-.686L16.87,7.768a1.28,1.28,0,0,0-1.816,0L13.816,9.005a.327.327,0,0,0,0,.455l2.973,2.973a.327.327,0,0,0,.455,0L18.482,11.2A1.29,1.29,0,0,0,18.482,9.38Z" transform="translate(0 -2.25)" fill="#255ba1"/>
</svg>
